<svg xmlns="http://www.w3.org/2000/svg" width="29.828" height="27.868" viewBox="0 0 29.828 27.868">
  <g id="Grupo_168" data-name="Grupo 168" transform="translate(-6514.503 -1511.62)">
    <path id="Icon_awesome-calendar-alt" data-name="Icon awesome-calendar-alt" d="M0,24.322a2.791,2.791,0,0,0,2.982,2.547H24.847a2.791,2.791,0,0,0,2.982-2.547V9.891H0ZM24.847,4.4H21.865V1.849A.933.933,0,0,0,20.871,1H18.884a.933.933,0,0,0-.994.849V4.4H9.939V1.849A.933.933,0,0,0,8.945,1H6.957a.933.933,0,0,0-.994.849V4.4H2.982A2.791,2.791,0,0,0,0,6.942V9.489H27.828V6.942A2.791,2.791,0,0,0,24.847,4.4Z" transform="translate(6515.503 1511.62)" fill="none" stroke="#fd7322" stroke-width="2"/>
    <circle id="Elipse_90" data-name="Elipse 90" cx="1.943" cy="1.943" r="1.943" transform="translate(6518.737 1524.768)" fill="#fd7322"/>
    <circle id="Elipse_95" data-name="Elipse 95" cx="1.943" cy="1.943" r="1.943" transform="translate(6518.737 1531.244)" fill="#fd7322"/>
    <circle id="Elipse_91" data-name="Elipse 91" cx="1.943" cy="1.943" r="1.943" transform="translate(6527.803 1524.768)" fill="#fd7322"/>
    <circle id="Elipse_94" data-name="Elipse 94" cx="1.943" cy="1.943" r="1.943" transform="translate(6527.803 1531.244)" fill="#fd7322"/>
    <circle id="Elipse_92" data-name="Elipse 92" cx="1.943" cy="1.943" r="1.943" transform="translate(6536.869 1524.768)" fill="#fd7322"/>
    <circle id="Elipse_93" data-name="Elipse 93" cx="1.943" cy="1.943" r="1.943" transform="translate(6536.869 1531.244)" fill="#fd7322"/>
  </g>
</svg>
