<svg id="Grupo_107" data-name="Grupo 107" xmlns="http://www.w3.org/2000/svg" xmlns:xlink="http://www.w3.org/1999/xlink" width="64.506" height="62.745" viewBox="0 0 64.506 62.745">
  <defs>
    <clipPath id="clip-path">
      <rect id="Retângulo_53" data-name="Retângulo 53" width="64.506" height="62.745" fill="none"/>
    </clipPath>
  </defs>
  <g id="Grupo_103" data-name="Grupo 103" clip-path="url(#clip-path)">
    <path id="Caminho_51" data-name="Caminho 51" d="M7.952,38.79c.934-.466-.359-5.15-1.858-6.995C4.754,30.15,2.534,29.122.581,30.364c-1.08.691-.527,3.382.613,4.038,2.862,1.638,4.547,5.485,6.758,4.389" transform="translate(0 -19.2)" fill="#fff"/>
    <path id="Caminho_52" data-name="Caminho 52" d="M49.531,14.181c1.507.171.263-4.264-.569-6.008S46.3,4.589,44.913,5.252s-1.011,3.124.163,4.79,2.945,3.972,4.456,4.139" transform="translate(-28.351 -3.293)" fill="#fff"/>
    <path id="Caminho_53" data-name="Caminho 53" d="M98.155,3.338c.145-1.29-.742-3.15-2.023-3.329-1.147-.156-2.049,1.6-2.11,2.758-.109,2.124.132,5.076,1.3,6.252s2.566-3.329,2.836-5.682" transform="translate(-60.536 0)" fill="#fff"/>
    <path id="Caminho_54" data-name="Caminho 54" d="M140.758,15.7c.311-1.472-.019-2.73-1.132-2.676s-2.139,1.507-2.509,2.84-1.454,3.674-.405,4.629,3.741-3.317,4.047-4.792" transform="translate(-87.755 -8.388)" fill="#fff"/>
    <path id="Caminho_55" data-name="Caminho 55" d="M172.947,33.732c-1.017-.62-2.093.742-2.512,2.186s-1.458,3.489-.569,4.142,2.525-1.36,3.24-2.513.855-3.2-.16-3.815" transform="translate(-109.17 -21.624)" fill="#fff"/>
    <path id="Caminho_56" data-name="Caminho 56" d="M21.894,55.142C25.205,58.3,24.223,42.5,45.622,41.424c12-.61,13.509.609,21.544,5.685,3.495,2.2,7.785,4.464,8.176,2.917s-3.577-6.509-6.885-8.765c-8.745-5.97-23.277-8.346-34.01-4.226-9.956,3.835-16.5,14.34-12.555,18.107" transform="translate(-13.35 -22.521)" fill="#fff"/>
    <path id="Caminho_57" data-name="Caminho 57" d="M88,74.479c-1.628-2.879-7.916-4.114-10.53-1.946-3.092,2.567-3.75,8.656-1.133,11.849,2.079,2.54,9.137,3.213,11.254-.082,1.444-2.233,1.634-7.643.41-9.822" transform="translate(-48.116 -46.003)" fill="#fff"/>
    <path id="Caminho_58" data-name="Caminho 58" d="M13.588,134.869a1.2,1.2,0,0,1,1.429.573c.264.513.047,1.1.322,1.621.668,1.263,2.19.688,2.405-.536a3.729,3.729,0,0,0-3.318-4.151A5.349,5.349,0,0,0,11.78,133a3.779,3.779,0,0,0-1.749,3c-.02,1.8,1.026,3.207,2.441,4.495a17.516,17.516,0,0,1,2.37,2.454c.563.819.618,2.568-.718,2.662a1.551,1.551,0,0,1-1-.209c-.384-.273-.167-.687-.116-1.213a1.484,1.484,0,0,0-2.426-1.161c-.835.765-.475,2.476.052,3.316a4.239,4.239,0,0,0,2.561,1.56,3.8,3.8,0,0,0,4.442-4.839,6.963,6.963,0,0,0-2.573-3.63,8.18,8.18,0,0,1-1.792-1.6c-.567-.849-1.026-2.608.313-2.963" transform="translate(-6.46 -85.245)" fill="#fff"/>
    <path id="Caminho_59" data-name="Caminho 59" d="M160.758,134.869a1.2,1.2,0,0,1,1.429.573c.264.513.047,1.1.322,1.621.668,1.263,2.19.688,2.405-.536a3.729,3.729,0,0,0-3.319-4.151,5.349,5.349,0,0,0-2.645.628,3.777,3.777,0,0,0-1.748,3c-.02,1.8,1.026,3.207,2.44,4.495a17.536,17.536,0,0,1,2.37,2.454c.563.819.618,2.568-.717,2.662a1.551,1.551,0,0,1-1-.209c-.384-.273-.167-.687-.116-1.213a1.484,1.484,0,0,0-2.426-1.161c-.835.765-.474,2.476.052,3.316a4.24,4.24,0,0,0,2.561,1.56,3.8,3.8,0,0,0,4.442-4.839,6.963,6.963,0,0,0-2.572-3.63,8.191,8.191,0,0,1-1.793-1.6c-.567-.849-1.026-2.608.313-2.963" transform="translate(-101.239 -85.245)" fill="#fff"/>
    <path id="Caminho_60" data-name="Caminho 60" d="M39.529,134.881a4.952,4.952,0,0,0,2.51-.268c.858-.54.5-1.594-.313-1.954a7.447,7.447,0,0,0-3.025-.264c-1.081,0-2.348-.224-2.939.57-.395.532-.246,1.317-.282,1.933-.05.829-.016,10.241-.038,10.836a2.856,2.856,0,0,0,.2,1.51c.52.856,1.845.644,2.69.671.893.028,1.8.056,2.684.027.865-.028,1.912-.86,1.334-1.792-1.073-1.731-4.147.718-4.368-1.893a6.853,6.853,0,0,1,.156-2.449c.284-.793,1.235-.512,1.894-.583.9-.1,2.17-.875,1.326-1.92-.613-.76-1.742-.252-2.543-.571-.785-.312-.785-1.12-.794-1.852-.015-1.271.047-2.036,1.512-2" transform="translate(-22.817 -85.245)" fill="#fff"/>
    <path id="Caminho_61" data-name="Caminho 61" d="M138.986,134.881a4.951,4.951,0,0,0,2.51-.268c.858-.54.5-1.594-.313-1.954a7.447,7.447,0,0,0-3.024-.264c-1.081,0-2.349-.224-2.939.57-.395.532-.246,1.317-.282,1.933-.05.829-.016,10.241-.038,10.836a2.856,2.856,0,0,0,.2,1.51c.52.856,1.844.644,2.689.671.893.028,1.8.056,2.684.027.865-.028,1.912-.86,1.334-1.792-1.073-1.731-4.147.718-4.368-1.893a6.878,6.878,0,0,1,.156-2.449c.284-.793,1.235-.512,1.894-.583.9-.1,2.171-.875,1.327-1.92-.614-.76-1.742-.252-2.543-.571-.785-.312-.785-1.12-.794-1.852-.015-1.271.047-2.036,1.512-2" transform="translate(-86.867 -85.245)" fill="#fff"/>
    <path id="Caminho_62" data-name="Caminho 62" d="M66.9,143.769c-.3-.731-1.328-2.181-.908-2.964.169-.318.644-.491.908-.733a3.358,3.358,0,0,0,.8-1.087A6.383,6.383,0,0,0,68.076,136a4.136,4.136,0,0,0-4.156-3.708,5.069,5.069,0,0,0-2.914.335c-.77.493-.557,1.461-.577,2.237-.037,1.442-.1,10.568-.054,11.5a1.358,1.358,0,0,0,1.272,1.454c1.349.16,1.338-1.043,1.336-1.991,0-.344.018-2.248.028-3.225,0-.341.116-.357.279-.38.258-.036.326.131.444.377.2.425.357,1.018.5,1.338.306.7.582,1.517.915,2.281.269.615.558,1.352,1.266,1.563a1.236,1.236,0,0,0,1.549-1.39,10.549,10.549,0,0,0-1.065-2.62m-1.583-7.017c0,.543.04,1.55-.584,1.834a2,2,0,0,1-1.285.14c-.615-.221-.629-.859-.653-1.418-.036-.825-.309-2.46.852-2.539a2.769,2.769,0,0,1,1.154.071c.657.272.5,1.392.517,1.912" transform="translate(-38.873 -85.161)" fill="#fff"/>
    <path id="Caminho_63" data-name="Caminho 63" d="M114.647,142.794a4.562,4.562,0,0,0-3.811-1.152,3.883,3.883,0,0,0-3.049,2.092,20.247,20.247,0,0,0-.322,4.249c-.011.778-.3,3.176.589,4.454a4.749,4.749,0,0,0,3.809,1.465,3.921,3.921,0,0,0,3.346-2.209,21.991,21.991,0,0,0,.19-4.239c.022-1.441.224-3.649-.752-4.66m-1.832,7.258c-.015.85-.03,1.7-1.107,1.843a1.55,1.55,0,0,1-1.682-1.074c-.052-.345.055-4.5.035-5.372-.019-.849.106-1.691,1.147-1.9,1.008-.2,1.553.592,1.586,1.451.017.431.033,3.56.035,3.865,0,.394-.007.79-.014,1.185" transform="translate(-69.174 -91.188)" fill="#fff"/>
    <path id="Caminho_64" data-name="Caminho 64" d="M90.856,132.573a23.672,23.672,0,0,0-2.687-.019,23.666,23.666,0,0,0-2.687.019,1.279,1.279,0,0,0-1.2,1.239c0,1,.8,1.208,1.5,1.189.775-.021.96.472.941,1.306-.016.719.017,1.431.015,2.151,0,1.628.093,3.261.029,4.887-.029.758-.038,1.507-.042,2.264a3.461,3.461,0,0,0,.192,1.8,1.651,1.651,0,0,0,2.514,0,3.461,3.461,0,0,0,.192-1.8c0-.758-.013-1.507-.042-2.264-.064-1.627.032-3.26.029-4.887,0-.721.031-1.433.015-2.151-.019-.834.166-1.327.942-1.306.7.019,1.5-.187,1.5-1.189a1.28,1.28,0,0,0-1.2-1.239" transform="translate(-54.275 -85.347)" fill="#fff"/>
    <path id="Caminho_65" data-name="Caminho 65" d="M111.523,134.791c.732,0,3.8.141,4.254,0a1.116,1.116,0,0,0,.151-1.97c-.568-.342-3.134-.262-3.632-.259-.54,0-1.415-.054-1.814.4a1.119,1.119,0,0,0,1.042,1.831" transform="translate(-70.982 -85.365)" fill="#fff"/>
  </g>
</svg>
